<svg xmlns="http://www.w3.org/2000/svg" viewBox="0 0 1113.08 829.49"><defs><style>.cls-1{fill:#ececec;}.cls-2{fill:#fafafa;}.cls-3{fill:#e1e1e1;}.cls-4{fill:#f0f0f0;}.cls-15,.cls-17,.cls-23,.cls-24,.cls-25,.cls-5,.cls-8{fill:#fff;}.cls-6{fill:#f5f5f5;}.cls-7{fill:#1a2e35;}.cls-10,.cls-20,.cls-25,.cls-8{opacity:0.2;}.cls-10,.cls-8{isolation:isolate;}.cls-21,.cls-22,.cls-9{fill:none;}.cls-9{stroke:#1a2e35;stroke-width:0.9px;}.cls-22,.cls-9{stroke-linecap:round;stroke-linejoin:round;}.cls-11{fill:#5348c7;}.cls-12{fill:#007cff;}.cls-13{fill:#d3d2ff;opacity:0.3;}.cls-14{fill:#dcdcff;}.cls-14,.cls-17{opacity:0.7;}.cls-15{opacity:0.4;}.cls-16{fill:#ffb570;}.cls-18,.cls-23{opacity:0.1;}.cls-19{fill:#fcb373;}.cls-21,.cls-22{stroke:#fff;stroke-width:0.73px;}.cls-21{stroke-miterlimit:10;}.cls-24{opacity:0.5;}.cls-26{fill:#ec873e;}.cls-27{fill:#fd5652;}</style></defs><title>Ресурс 40</title><g id="Слой_2" data-name="Слой 2"><g id="Слой_1-2" data-name="Слой 1"><rect class="cls-1" y="728.95" width="1113.08" height="0.56"/><rect class="cls-1" x="927.82" y="764.78" width="73.74" height="0.56"/><rect class="cls-1" x="718" y="770.82" width="19.35" height="0.56"/><rect class="cls-1" x="882.86" y="744.11" width="42.73" height="0.56"/><rect class="cls-1" x="116.78" y="747.85" width="96.16" height="0.56"/><rect class="cls-1" x="232.76" y="747.85" width="14.1" height="0.56"/><rect class="cls-1" x="292.68" y="757.25" width="208.54" height="0.56"/><path class="cls-1" d="M527.63,629.66H97.76A12.73,12.73,0,0,1,85.05,617V12.71A12.73,12.73,0,0,1,97.76,0H527.63a12.72,12.72,0,0,1,12.7,12.71V617A12.72,12.72,0,0,1,527.63,629.66ZM97.76.56A12.16,12.16,0,0,0,85.61,12.71V617a12.16,12.16,0,0,0,12.15,12.15H527.63A12.16,12.16,0,0,0,539.78,617V12.71A12.16,12.16,0,0,0,527.63.56Z"/><path class="cls-1" d="M1009.14,629.66H579.27a12.72,12.72,0,0,1-12.7-12.7V12.71A12.72,12.72,0,0,1,579.27,0h429.87a12.72,12.72,0,0,1,12.71,12.71V617A12.72,12.72,0,0,1,1009.14,629.66ZM579.27.56a12.16,12.16,0,0,0-12.15,12.15V617a12.16,12.16,0,0,0,12.15,12.15h429.87A12.16,12.16,0,0,0,1021.29,617V12.71A12.16,12.16,0,0,0,1009.14.56Z"/><rect class="cls-2" x="749.57" y="406.41" width="49.64" height="21.12"/><rect class="cls-2" x="689.51" y="406.41" width="49.64" height="21.12"/><rect class="cls-2" x="629.44" y="406.41" width="49.64" height="21.12"/><rect class="cls-2" x="779.6" y="435.81" width="49.64" height="21.12"/><rect class="cls-2" x="719.54" y="435.81" width="49.64" height="21.12"/><rect class="cls-2" x="659.47" y="435.81" width="49.64" height="21.12"/><rect class="cls-2" x="599.41" y="435.81" width="49.64" height="21.12"/><rect class="cls-2" x="876.43" y="465.21" width="49.64" height="21.12"/><rect class="cls-2" x="816.36" y="465.21" width="49.64" height="21.12"/><rect class="cls-2" x="689.51" y="465.21" width="49.64" height="21.12"/><rect class="cls-2" x="629.44" y="465.21" width="49.64" height="21.12"/><rect class="cls-2" x="569.38" y="465.21" width="49.64" height="21.12"/><rect class="cls-2" x="846.39" y="494.61" width="49.64" height="21.12"/><rect class="cls-2" x="719.54" y="494.61" width="49.64" height="21.12"/><rect class="cls-2" x="659.47" y="494.61" width="49.64" height="21.12"/><rect class="cls-2" x="599.41" y="494.61" width="49.64" height="21.12"/><rect class="cls-2" x="365.12" y="106.88" width="49.64" height="21.12"/><rect class="cls-2" x="305.05" y="106.88" width="49.64" height="21.12"/><rect class="cls-2" x="395.15" y="136.28" width="49.64" height="21.12"/><rect class="cls-2" x="335.08" y="136.28" width="49.64" height="21.12"/><rect class="cls-2" x="214.96" y="136.28" width="49.64" height="21.12"/><rect class="cls-2" x="154.89" y="136.28" width="49.64" height="21.12"/><rect class="cls-2" x="305.05" y="165.68" width="49.64" height="21.12"/><rect class="cls-2" x="851.83" y="278.96" width="49.64" height="21.12"/><rect class="cls-2" x="747.24" y="278.96" width="49.64" height="21.12"/><rect class="cls-2" x="881.86" y="308.36" width="49.64" height="21.12"/><rect class="cls-2" x="821.8" y="308.36" width="49.64" height="21.12"/><rect class="cls-2" x="309.29" y="249.29" width="49.64" height="21.12"/><rect class="cls-2" x="182.42" y="249.29" width="49.64" height="21.12"/><rect class="cls-2" x="339.32" y="278.69" width="49.64" height="21.12"/><rect class="cls-2" x="256.98" y="278.69" width="49.64" height="21.12"/><rect class="cls-2" x="851.83" y="337.76" width="49.64" height="21.12"/><rect class="cls-2" x="747.24" y="337.76" width="49.64" height="21.12"/><rect class="cls-2" x="184.92" y="165.68" width="49.64" height="21.12"/><rect class="cls-2" x="888.21" y="107.67" width="49.64" height="21.12"/><rect class="cls-2" x="828.15" y="107.67" width="49.64" height="21.12"/><rect class="cls-2" x="858.18" y="137.07" width="49.64" height="21.12"/><rect class="cls-2" x="619.14" y="108.14" width="49.64" height="21.12"/><rect class="cls-2" x="559.07" y="108.14" width="49.64" height="21.12"/><rect class="cls-2" x="649.17" y="137.54" width="49.64" height="21.12"/><rect class="cls-2" x="589.11" y="137.54" width="49.64" height="21.12"/><rect class="cls-2" x="529.04" y="137.54" width="49.64" height="21.12"/><rect class="cls-2" x="679.2" y="166.94" width="49.64" height="21.12"/><rect class="cls-2" x="619.14" y="166.94" width="49.64" height="21.12"/><rect class="cls-2" x="559.07" y="166.94" width="49.64" height="21.12"/><rect class="cls-2" x="649.17" y="196.34" width="49.64" height="21.12"/><rect class="cls-2" x="589.11" y="196.34" width="49.64" height="21.12"/><rect class="cls-2" x="245.45" y="398.43" width="49.64" height="21.12"/><rect class="cls-2" x="185.38" y="398.43" width="49.64" height="21.12"/><rect class="cls-2" x="417.88" y="401.11" width="49.64" height="21.12"/><rect class="cls-2" x="275.48" y="427.83" width="49.64" height="21.12"/><rect class="cls-2" x="215.41" y="427.83" width="49.64" height="21.12"/><rect class="cls-2" x="447.92" y="430.51" width="49.64" height="21.12"/><rect class="cls-2" x="387.85" y="430.51" width="49.64" height="21.12"/><rect class="cls-2" x="547.24" y="335.46" width="49.64" height="21.12"/><rect class="cls-2" x="235.82" y="321.46" width="49.64" height="21.12"/><rect class="cls-2" x="479.54" y="231.19" width="49.64" height="21.12"/><rect class="cls-2" x="517.21" y="306.06" width="49.64" height="21.12"/><rect class="cls-2" x="577.27" y="306.06" width="49.64" height="21.12"/><rect class="cls-2" x="802.76" y="707.43" width="49.64" height="21.12"/><rect class="cls-2" x="832.79" y="678.03" width="49.64" height="21.12"/><rect class="cls-2" x="245.45" y="457.23" width="49.64" height="21.12"/><rect class="cls-2" x="185.38" y="457.23" width="49.64" height="21.12"/><rect class="cls-2" x="275.48" y="486.63" width="49.64" height="21.12"/><rect class="cls-2" x="215.41" y="486.63" width="49.64" height="21.12"/><rect class="cls-2" x="339.71" y="567.96" width="49.64" height="21.12"/><rect class="cls-2" x="279.64" y="567.96" width="49.64" height="21.12"/><rect class="cls-2" x="219.58" y="567.96" width="49.64" height="21.12"/><rect class="cls-2" x="159.51" y="567.96" width="49.64" height="21.12"/><rect class="cls-2" x="369.74" y="597.36" width="49.64" height="21.12"/><rect class="cls-2" x="309.67" y="597.36" width="49.64" height="21.12"/><rect class="cls-2" x="189.54" y="597.36" width="49.64" height="21.12"/><rect class="cls-2" x="399.77" y="626.76" width="49.64" height="21.12"/><rect class="cls-2" x="339.71" y="626.76" width="49.64" height="21.12"/><rect class="cls-2" x="279.64" y="626.76" width="49.64" height="21.12"/><rect class="cls-2" x="369.74" y="656.16" width="49.64" height="21.12"/><rect class="cls-2" x="309.67" y="656.16" width="49.64" height="21.12"/><rect class="cls-2" x="249.61" y="656.16" width="49.64" height="21.12"/><rect class="cls-2" x="746.06" y="566.6" width="49.64" height="21.12"/><rect class="cls-2" x="619.21" y="566.6" width="49.64" height="21.12"/><rect class="cls-2" x="559.14" y="566.6" width="49.64" height="21.12"/><rect class="cls-2" x="776.09" y="596" width="49.64" height="21.12"/><rect class="cls-2" x="649.24" y="596" width="49.64" height="21.12"/><rect class="cls-2" x="589.18" y="596" width="49.64" height="21.12"/><rect class="cls-2" x="529.11" y="596" width="49.64" height="21.12"/><rect class="cls-2" x="806.13" y="625.4" width="49.64" height="21.12"/><rect class="cls-2" x="746.06" y="625.4" width="49.64" height="21.12"/><rect class="cls-2" x="619.21" y="625.4" width="49.64" height="21.12"/><rect class="cls-2" x="559.14" y="625.4" width="49.64" height="21.12"/><rect class="cls-2" x="709.31" y="654.8" width="49.64" height="21.12"/><rect class="cls-2" x="649.24" y="654.8" width="49.64" height="21.12"/><rect class="cls-2" x="589.18" y="654.8" width="49.64" height="21.12"/><rect class="cls-2" x="529.11" y="654.8" width="49.64" height="21.12"/><rect class="cls-3" x="687.95" y="222.97" width="214.42" height="245.27" transform="translate(1590.32 691.21) rotate(180)"/><rect class="cls-3" x="688.35" y="222.97" width="206.17" height="245.27" transform="translate(1582.87 691.21) rotate(180)"/><rect class="cls-4" x="681.27" y="222.97" width="214.42" height="245.27" transform="translate(1576.95 691.21) rotate(180)"/><rect class="cls-5" x="691" y="230.8" width="195.32" height="226.17" transform="translate(1577.32 687.77) rotate(180)"/><rect class="cls-3" x="691" y="230.8" width="6.1" height="226.17" transform="translate(1388.1 687.77) rotate(180)"/><rect class="cls-3" x="788.6" y="301.28" width="6.1" height="190.42" transform="translate(395.17 1188.14) rotate(-90)"/><rect class="cls-4" x="691" y="383.2" width="198.6" height="10.24" transform="translate(1580.59 776.64) rotate(180)"/><rect class="cls-3" x="235.76" y="222.97" width="214.42" height="245.27" transform="translate(685.93 691.21) rotate(180)"/><rect class="cls-3" x="236.15" y="222.97" width="206.17" height="245.27" transform="translate(678.48 691.21) rotate(180)"/><rect class="cls-4" x="229.07" y="222.97" width="214.42" height="245.27" transform="translate(672.56 691.21) rotate(180)"/><rect class="cls-5" x="238.8" y="230.8" width="195.32" height="226.17" transform="translate(672.93 687.77) rotate(180)"/><rect class="cls-3" x="238.8" y="230.8" width="6.1" height="226.17" transform="translate(483.71 687.77) rotate(180)"/><rect class="cls-3" x="336.41" y="301.28" width="6.1" height="190.42" transform="translate(-57.03 735.95) rotate(-90)"/><rect class="cls-4" x="238.8" y="383.2" width="198.6" height="10.24" transform="translate(676.2 776.64) rotate(180)"/><ellipse id="_Path_" data-name="&lt;Path&gt;" class="cls-6" cx="556.54" cy="804.28" rx="431.63" ry="25.21"/><path class="cls-7" d="M199,746.79s-3.09-22.65-17.58-25.13S171.29,708.23,167.51,704s-13.62,8.27-5.18,20.39,1.54,8.31,5.18,19.57S200.3,765.57,199,746.79Z"/><path class="cls-8" d="M199,746.79s-3.09-22.65-17.58-25.13S171.29,708.23,167.51,704s-13.62,8.27-5.18,20.39,1.54,8.31,5.18,19.57S200.3,765.57,199,746.79Z"/><path class="cls-9" d="M198.38,761.5s-11.11-23.08-5.28-60.73,27.72-52.27,8.69-93.7-40.77-71-29.89-100.38"/><path class="cls-7" d="M190,757s-9.36-14.11,4.16-21.36,16.22-1.42,24.58-6.63,14.69-17.86,16.12-9.77-8.23,12.7-4.82,16.4S207.32,763.33,190,757Z"/><path class="cls-7" d="M167.93,518.47s-9.12-27.72,11.62-28.3S177.43,515.51,167.93,518.47Z"/><path class="cls-7" d="M186,539.78s6.18-25.2,20.91-19.89S200.62,540.25,186,539.78Z"/><path class="cls-7" d="M161,542s2.22-20.12-13.41-20.52S138.89,538.72,161,542Z"/><path class="cls-7" d="M171.36,583s-21-18.7-28.51-4.79S158.67,595,171.36,583Z"/><path class="cls-7" d="M208.46,579.69s3.95-31.05,20.89-21.31S223.22,582.79,208.46,579.69Z"/><path class="cls-7" d="M223.37,624.14s-12.51-31.37,10.73-27.83S239.77,616.53,223.37,624.14Z"/><path class="cls-7" d="M187.72,635.34s-19.63-23.12-34.63-15.79S150.35,649.86,187.72,635.34Z"/><path class="cls-7" d="M205.52,686.56s16.72-37.13,31.59-24.62S227.62,693.16,205.52,686.56Z"/><path class="cls-7" d="M181.23,684.38s4.42-28.79-12.14-26.48S156.89,677.83,181.23,684.38Z"/><g class="cls-10"><path class="cls-5" d="M167.93,518.47s-9.12-27.72,11.62-28.3S177.43,515.51,167.93,518.47Z"/><path class="cls-5" d="M186,539.78s6.18-25.2,20.91-19.89S200.62,540.25,186,539.78Z"/><path class="cls-5" d="M161,542s2.22-20.12-13.41-20.52S138.89,538.72,161,542Z"/><path class="cls-5" d="M171.36,583s-21-18.7-28.51-4.79S158.67,595,171.36,583Z"/><path class="cls-5" d="M208.46,579.69s3.95-31.05,20.89-21.31S223.22,582.79,208.46,579.69Z"/><path class="cls-5" d="M223.37,624.14s-12.51-31.37,10.73-27.83S239.77,616.53,223.37,624.14Z"/><path class="cls-5" d="M187.72,635.34s-19.63-23.12-34.63-15.79S150.35,649.86,187.72,635.34Z"/><path class="cls-5" d="M205.52,686.56s16.72-37.13,31.59-24.62S227.62,693.16,205.52,686.56Z"/><path class="cls-5" d="M181.23,684.38s4.42-28.79-12.14-26.48S156.89,677.83,181.23,684.38Z"/></g><path class="cls-9" d="M155.77,535.37s8.92,13.26,21.13,20.1c0,0,8.08-15.58,14.38-19.36"/><path class="cls-9" d="M155.26,581.15s22.7-.73,40.66,12.85c0,0,10-16.91,23.06-24.62"/><path class="cls-9" d="M230.21,609.29S220.47,634.93,208,644.9c0,0-25.78-14.94-44.71-15.32"/><path class="cls-9" d="M171,667.24s12.74,24.87,22.24,30.3c0,0,8.88-12.52,28.09-18.29"/><path class="cls-7" d="M191.45,753.6s-8-12.77-17.09-14.59-13-12.27-16.32-6S163.92,760.13,191.45,753.6Z"/><polygon class="cls-11" points="158.75 803.76 225.7 803.76 230.18 749.69 154.26 749.69 158.75 803.76"/><polygon class="cls-12" points="152.7 759.93 231.75 759.93 232.76 748.48 151.69 748.48 152.7 759.93"/><polygon class="cls-13" points="152.7 759.93 231.75 759.93 232.76 748.48 151.69 748.48 152.7 759.93"/><path class="cls-11" d="M285.72,429.8a3.76,3.76,0,0,1,.84-.66l40.18-79.41-18.47,3.58L292.08,385a1.36,1.36,0,0,1,.28.11,1.34,1.34,0,0,1,.36,1.85c-.37.56-.68,1.15-1,1.74.28.18.55.4.85.56a1.31,1.31,0,0,1,.54,1.37,1.34,1.34,0,0,1-1,1l-.54.13-.1,0-.13,0a5.75,5.75,0,0,0-.87.41l-.2.12h0l-.33.25a7.68,7.68,0,0,0-.67.61c-.13.12-.24.25-.36.38h0a1.46,1.46,0,0,0-.16.19c-.21.25-.41.52-.61.79-.44.6-.86,1.22-1.28,1.84a1.26,1.26,0,0,1-.85.55l-23.72,46.46,2.33,12,10.53-2a7.18,7.18,0,0,1,1.65-2.67,8.83,8.83,0,0,1,1.15-.86v-.25c.26-5.42,2.5-10.5,5.13-15.17a1.4,1.4,0,0,1,0-1.49,3.23,3.23,0,0,0,.39-2.11A1.37,1.37,0,0,1,285.72,429.8Z"/><path class="cls-11" d="M355,422.7a3,3,0,0,1-.25,1,6.78,6.78,0,0,1-3.07,2.94c-.27.39-.54.76-.8,1.15a1.33,1.33,0,0,1-.58.45c-.06.21-.14.41-.2.62a1.35,1.35,0,0,1-1.7.82,1.37,1.37,0,0,1-.82-1.7,17.28,17.28,0,0,1,.85-2.31l-1.27.25a1.36,1.36,0,0,1-1.56-1.06,1,1,0,0,1,0-.3l-.76.15-5-26-16.08,3.12,5,26L289,435.5c-.27.14-.51.33-.77.48l.07.19a1.38,1.38,0,0,1-.6,1.79,1.36,1.36,0,0,1-1.67-.43,15,15,0,0,0-2,2.1,1.33,1.33,0,0,1,1.33.39,1.35,1.35,0,0,1-.12,1.88c-.37.28-.72.58-1.06.88a1.41,1.41,0,0,1,0,1.48v0h0a.43.43,0,0,0,0,.07l-.06.17s0,0,0,.06,0,.16,0,.24c0,.33,0,.66,0,1a2.49,2.49,0,0,1-.74,1.58,3.29,3.29,0,0,1-1.71.79h-.14a14.6,14.6,0,0,0,.28,2,9.25,9.25,0,0,1,.71,1.9l48.74-9.44,5.7,29.42,16.59-3.22-5.7-29.42L370.42,435l-2.85-14.71Z"/><path class="cls-11" d="M451.47,342.56c-.36.31-.73.61-1.08.92-.51.45-1,.9-1.47,1.38-.17.17-.39.46-.6.65a.35.35,0,0,1-.11.1l-.32.39a2.79,2.79,0,0,1-4.94-2.49c.22-.78.43-1.57.64-2.36-.07-.11-.19-.18-.25-.31a2.16,2.16,0,0,1-.26-1.08,2.1,2.1,0,0,1,.13-1.08,6,6,0,0,1,.31-.8,6,6,0,0,1-1.21-1.63c0-.05,0-.12-.07-.18a45.32,45.32,0,0,0-30.4-4.25c-28,5.44-44.61,31.72-37,70.71s32.74,57.19,60.79,51.75a49.24,49.24,0,0,0,7.41-2c.77-1.11,1.55-2.21,2.3-3.32a2.77,2.77,0,0,1,4.66.17c18.85-10.51,28.65-33.8,22.5-65.51C468.88,365.16,461.35,351.4,451.47,342.56Zm-18.84,96.5c-18.82,3.65-34.8-9.22-40.74-39.84S396,350.69,414.79,347c10.28-2,19.74,1.06,27.16,9.3a3.22,3.22,0,0,1,1.06-.49,2.82,2.82,0,0,1,3.27,2.21,14.81,14.81,0,0,1,.1,4.25c3.91,6.3,7,14.46,9,24.61C461.28,417.53,451.27,435.45,432.63,439.06Z"/><path class="cls-11" d="M573.35,380.37l-5-26-16.08,3.12,5,26-46,8.92,44-87L536.8,309l-16.54,32.4a37.25,37.25,0,0,1-2.43,11.82,1.35,1.35,0,0,1-2.51,0c-.63,3.42-1.89,6.68-4.59,9.05a1.22,1.22,0,0,1-1.25.24l-18.73,36.69,2.32,12,27.69-5.37c2.1-2.06,5.7-3.11,8.13-3.68a42.57,42.57,0,0,1,7.94-1.06,20.16,20.16,0,0,1,6,.46l16.78-3.25,5.7,29.42,16.59-3.22-5.7-29.42L599,390.67,596.1,376Z"/><path class="cls-11" d="M267.36,309.13l-2.62-13.54,27.15-5.26-2-10.53-27.15,5.27-2.46-12.7,30.74-6-2.11-10.86-44.19,8.57,3.78,19.51a6,6,0,0,1,1.76,1.4,6.86,6.86,0,0,1,1.45,3.69c.29,2.79-.4,5.66.1,8.36a1.22,1.22,0,0,1-.46,1.23l4.7,24.28,45.28-8.77L299.19,303Z"/><path class="cls-11" d="M347.11,285.43c6.75-4.58,9.9-11.57,8.55-20a1.21,1.21,0,0,1-.84.43,1.32,1.32,0,0,1-1.27-.72A8.71,8.71,0,0,1,353,263c0-.1,0-.2,0-.3a4.51,4.51,0,0,1-.86-1.79,1.36,1.36,0,0,1,1.05-1.56,1.11,1.11,0,0,1,.8.15c-4.25-9.52-14.48-13.73-27.88-11.14l-25.31,4.91,3.42,17.65a1.22,1.22,0,0,1,.61.6,40.34,40.34,0,0,1,4,13.95,1.37,1.37,0,0,1-1.06,1.56,1.22,1.22,0,0,1-.38,0l4.8,24.73,13.53-2.63-3.16-16.29,12.45-2.41,14.43,14.1,14.54-2.81Zm-15.72-5.53-11,2.14-3.95-20.39,11-2.13c8.27-1.61,13.17,1.34,14.42,7.78S339.66,278.3,331.39,279.9Z"/><path class="cls-11" d="M408.52,273.53c7-4.73,10.15-12,8.45-20.79-2.54-13.12-13.89-19.33-29.51-16.3l-25.31,4.91,11.33,58.47L387,297.2l-3.16-16.29,12.45-2.41,14.43,14.1,14.54-2.82ZM392.8,268l-11,2.13-3.95-20.38,11-2.14c.69-.13,1.35-.22,2-.29l.41-.35a4.52,4.52,0,0,1,.23-1,2,2,0,0,1,1.91-1.28,5.25,5.25,0,0,1,2.25.77,1.28,1.28,0,0,1,.42-.34,6.12,6.12,0,0,1,.16-1.26,1.35,1.35,0,0,1,1.7-.82,1.39,1.39,0,0,1,.82,1.7c-.26,1,.23,1.94.13,3a2.26,2.26,0,0,1-.23.72,9.45,9.45,0,0,1,4.64,6.92C404.5,261.74,401.07,266.39,392.8,268Z"/><path class="cls-11" d="M472.57,225.15a7,7,0,0,0-.69.17,3.38,3.38,0,0,0-.47.22l-.18.15,0,0a1.41,1.41,0,0,1-.76.47,1.32,1.32,0,0,1-1.56-1,1.35,1.35,0,0,1,.21-1,1.71,1.71,0,0,1,.18-.2,35.12,35.12,0,0,0-17.64-.94c-18.46,3.58-29.5,19.07-26.13,36.44s19.39,27.62,37.86,24,29.51-19,26.13-36.44A29.71,29.71,0,0,0,472.57,225.15Zm-11.4,46.75c-10.44,2-19.77-4-21.92-15.16s4.23-20.24,14.67-22.26a19.68,19.68,0,0,1,7.57,0c.1-.3.18-.61.3-.89a1.34,1.34,0,0,1,1.53-.85,1.25,1.25,0,0,1,1,1l.78-.19c.18-.55.36-1.1.51-1.66.09-.31.18-.63.25-.94l.12-.47,0-.15h0c.05-.27.1-.53.13-.8a2.81,2.81,0,0,0,0-.29c-.13-.9.8-2,1.75-1.5l2.64,1.29a1.35,1.35,0,0,1,.82,1.69,8.18,8.18,0,0,0-.41,1c0,.12-.07.24-.1.36s0,.06,0,.08l0,.17a10.62,10.62,0,0,0-.11,1.59,20.86,20.86,0,0,1-.22,3.79,1.21,1.21,0,0,1,0,.92,1.26,1.26,0,0,1-.25.41,19.76,19.76,0,0,1,5.59,10.62C478,260.76,471.61,269.88,461.17,271.9Z"/><path class="cls-11" d="M549.11,228.84l-.23-.07a4.29,4.29,0,0,1-1.44-.85,9.59,9.59,0,0,1-.69,1,1.37,1.37,0,0,1-1.86.36,1.34,1.34,0,0,1-.35-1.85,12.66,12.66,0,0,0,2.4-6.09c-4.43-9-14.48-13-27.55-10.45l-25.32,4.9,11.34,58.48,13.53-2.62-3.16-16.29,12.45-2.42L542.67,267l14.53-2.82L540.44,248A19.2,19.2,0,0,0,549.11,228.84Zm-24.39,13.58-11,2.14-4-20.38,11-2.14c8.27-1.6,13.18,1.35,14.42,7.78S533,240.82,524.72,242.42Z"/><path class="cls-11" d="M624.36,341.64l-3.37.65a1.34,1.34,0,0,1-1.13-2.31l.13-.12c-1,.42-1.92.85-2.91,1.22a39.61,39.61,0,0,0-.05,4.36l22,113.28-81.34,15.76a1.12,1.12,0,0,1,.06.49,1.33,1.33,0,0,1-1.43,1.22c-1.32-.25-2.65-.49-4-.67L444.59,496.4a1.59,1.59,0,0,1-.18.53,17.77,17.77,0,0,1-1.37,2,2.44,2.44,0,0,1-.12,1.18c-1,2.44-1.76,5-3.24,7.19a2.9,2.9,0,0,1-1.78,1.17,2.43,2.43,0,0,1-1.41-.11,15.15,15.15,0,0,0-1.1,3.46L608,478.34l.17-.22a10,10,0,0,1,7.56-2.7,14,14,0,0,1,3.47-2.88,3.77,3.77,0,0,1,5.85,1.87,48,48,0,0,1,5.11-.37l24.53-4.75L630.73,345.91A16,16,0,0,1,624.36,341.64Z"/><path class="cls-11" d="M401.28,180.21c.27.07.54.11.81.17l16.1-3.12c1.77-.79,3.52-1.6,5.26-2.34a30.63,30.63,0,0,1,10.28-2.82A16.21,16.21,0,0,1,440,173L578.41,146.2l12.83,66.22a1.35,1.35,0,0,1,2.43.45c.58,3,1.33,5.95,1.2,9a11.49,11.49,0,0,1-1,4.18l21.85,112.71c1.32-.48,2.61-1,3.89-1.6.44-1.48,1-3.12,2.48-3.86a4.23,4.23,0,0,1,3-.22,16.72,16.72,0,0,0,1.13-3.64,22.69,22.69,0,0,0,.43-4.66l-.89-4.57c-.1-.23-.19-.47-.31-.7a1.17,1.17,0,0,1,0-1.1l-23-118.47a1.41,1.41,0,0,1-.41.07,4.55,4.55,0,0,1-4.16-1.94,6.59,6.59,0,0,1-.55-4.2c.2-1.67.64-3.3,1-5a13.27,13.27,0,0,0,.33-4.51,1.22,1.22,0,0,1,.57-1.31L589,130.54,389.39,169.23c-3.87,1.87-7.82,3.57-12.2,3.18a1.19,1.19,0,0,1-1-.62l-99,19.2a1.4,1.4,0,0,1-1.06,1.07l-5.2,1a4.38,4.38,0,0,1-.68,2.2,1.32,1.32,0,0,1-.43.82,10.22,10.22,0,0,0-1,.88c-.6.56-1.16,1.16-1.79,1.69a1.69,1.69,0,0,1-.77.41,1.34,1.34,0,0,1-1.59-1.42,1.31,1.31,0,0,1,.09-.38c-.81,0-1.61-.11-2.38-.2a1.38,1.38,0,0,1-1.23-1.44,1.34,1.34,0,0,1,1.43-1.22,21.56,21.56,0,0,0,2.53.2h.66a1.36,1.36,0,0,0,.29,0l.11,0a2.74,2.74,0,0,1-1.68-.92,1,1,0,0,1-.12-.17L207,204.59a1.39,1.39,0,0,1,.76.19,1.34,1.34,0,0,1,.36,1.85,12.36,12.36,0,0,1-1.54,1.69.85.85,0,0,1-.16.17l0,0h0c.1-.12.15-.1,0,0a3.09,3.09,0,0,0-.26.37l-.09.24-.06.21a.68.68,0,0,1,0,.14,1.34,1.34,0,0,1-2.07,1l-.06,0,0,0-.36-.14-.44-.12a3.45,3.45,0,0,1-.48,1.78,1.23,1.23,0,0,1-1.16.54,12.36,12.36,0,0,1-1.25,3.59,9.12,9.12,0,0,1-2.67,2.89s.07,0,.09.07a4.34,4.34,0,0,1,.54.93l85.26-16.53.1-.13a6.32,6.32,0,0,1,1.39-1.57,2.94,2.94,0,0,1,2.58-.48,5.7,5.7,0,0,1,1.93,1l110.4-21.4A1.38,1.38,0,0,1,401.28,180.21Z"/><path class="cls-11" d="M252.83,533.57l-20-103.18a1.38,1.38,0,0,1-1.44.4,1.35,1.35,0,0,1-.82-1.7,8.73,8.73,0,0,1,1.48-2.7L205.77,290.8c-.08-.14-.17-.27-.25-.42a12.83,12.83,0,0,1-1.13-3.47,9.18,9.18,0,0,0-1.39,0,1.35,1.35,0,0,1-1.59-1.41,14.61,14.61,0,0,1,1.92-7.32L192.7,223.37c-.17-.29-.33-.6-.48-.91s-.34-.67-.52-1a1.2,1.2,0,0,1-1-.68,1.36,1.36,0,0,1,.6-1.79,3.85,3.85,0,0,0,1.48-1,4.36,4.36,0,0,0,.75-1.16,8.37,8.37,0,0,0,.54-2.94,4.25,4.25,0,0,1-.7-1.51,4.92,4.92,0,0,1,.2-2.22,1,1,0,0,1,.3-.48c-.08-.85-.15-1.7-.2-2.55l-17,3.3L225.2,461.2a1.09,1.09,0,0,1,1.45.35c1.07,1.42,2.16,3.13,1.92,5a4.2,4.2,0,0,1-.3,1.08,1.26,1.26,0,0,1,.44,1.46,6.53,6.53,0,0,0-.6,4.14,28.06,28.06,0,0,0,1.14,3.9,10.23,10.23,0,0,1,.31,6.58l12.7,65.52,3.61-.7a48.23,48.23,0,0,1,6.19-1.63,1,1,0,0,1,.19-.89,15.37,15.37,0,0,1,1.7-1.74,1.38,1.38,0,0,1,0-.7,7.2,7.2,0,0,1,2.47-3.91,5.69,5.69,0,0,1,3.87-1.1,9.08,9.08,0,0,1,6.54,4.17c3.66-.9,7.61-2.16,11.06-.41L416.27,515.5a8.09,8.09,0,0,1,.21-1.07,10.36,10.36,0,0,1,3.06-4.64,1.29,1.29,0,0,1,1.56-.11,1.19,1.19,0,0,1,.16-.23,1.35,1.35,0,0,1,1.89.12c.17.23.36.46.55.67l.24.24,0,0,0,0a3.71,3.71,0,0,0,.41.28l.08.05.07,0,.48.22a6.49,6.49,0,0,1-.06-4,5.69,5.69,0,0,1,3.09-3.24,1.31,1.31,0,0,1,.79-2.07,1.35,1.35,0,0,1,1.06,2.37,1.3,1.3,0,0,1,.15.18,1.35,1.35,0,0,1-.6,1.79,4.9,4.9,0,0,0-.52.24l-.28.16c.07,0,.07,0-.1.06l-.15.12c-.12.1-.24.2-.35.31l-.05.06.07-.09c0,.06-.09.11-.13.16l-.23.33-.09.14c-.05.12-.1.24-.14.36v0a7.8,7.8,0,0,1,1.54-1.55,6.13,6.13,0,0,1,1.23-.67c1.1-2.39,2.12-4.83,3.14-7.24Z"/><path class="cls-12" d="M431.36,582.61H526.5a19.7,19.7,0,0,1,19.69,19.69v33.38a19.7,19.7,0,0,1-19.69,19.7H463.27l-28.89,30.94L450,655.38H431.36a19.69,19.69,0,0,1-19.69-19.7V602.3A19.69,19.69,0,0,1,431.36,582.61Z"/><path class="cls-14" d="M431.36,582.61H526.5a19.7,19.7,0,0,1,19.69,19.69v33.38a19.7,19.7,0,0,1-19.69,19.7H463.27l-28.89,30.94L450,655.38H431.36a19.69,19.69,0,0,1-19.69-19.7V602.3A19.69,19.69,0,0,1,431.36,582.61Z"/><path class="cls-11" d="M436,617.16c0-6.22,4.8-10.86,11.32-10.86s11.25,4.61,11.25,10.86S453.79,628,447.33,628,436,623.38,436,617.16Zm19.54,0a8.25,8.25,0,1,0-8.22,8.16A8,8,0,0,0,455.55,617.16Z"/><path class="cls-11" d="M461.31,619.74a8.36,8.36,0,1,1,8.37,8.22A8,8,0,0,1,461.31,619.74Zm13.77,0a5.42,5.42,0,1,0-5.4,5.67A5.27,5.27,0,0,0,475.08,619.74Z"/><path class="cls-11" d="M498.7,619.74a7.8,7.8,0,0,1-8.12,8.22,6.88,6.88,0,0,1-5.62-2.61v8.31h-2.91v-22h2.79v2.55a6.86,6.86,0,0,1,5.74-2.7A7.8,7.8,0,0,1,498.7,619.74Zm-2.94,0a5.42,5.42,0,1,0-5.43,5.67A5.31,5.31,0,0,0,495.76,619.74Z"/><path class="cls-11" d="M500.7,626.08l1.22-2.3a10.4,10.4,0,0,0,5.64,1.66c2.7,0,3.82-.81,3.82-2.18,0-3.61-10.16-.49-10.16-6.89,0-2.88,2.58-4.82,6.7-4.82a11.71,11.71,0,0,1,5.86,1.46l-1.25,2.3a8.37,8.37,0,0,0-4.64-1.27c-2.55,0-3.79.94-3.79,2.21,0,3.79,10.19.7,10.19,7,0,2.91-2.67,4.76-6.94,4.76A11.65,11.65,0,0,1,500.7,626.08Z"/><path class="cls-11" d="M517.26,626a1.93,1.93,0,0,1,2-1.94,1.94,1.94,0,1,1,0,3.88A2,2,0,0,1,517.26,626Zm.28-19.47H521l-.57,14.53h-2.31Z"/><path class="cls-7" d="M986.07,235.59c0,7.26-39.69,13.49-96.55,16.23-1.51.06-3,.13-4.56.22l-6.15.24c-8.52.34-17.38.58-26.51.78-1.36,0-2.72,0-4.1.07l-2.33,0q-10.53.16-21.46.16c-13.18,0-26-.18-38.25-.49-3-.09-6-.18-8.93-.29-22.37-.74-42.67-2-59.77-3.65-33.55-3.25-54.72-8-54.72-13.29,0-8,48.09-14.72,114.23-16.94,1.71-.07,3.45-.11,5.18-.18,4.61-.13,9.29-.25,14.05-.33,5.72-.12,11.55-.18,17.45-.23l1.3,0h0c3.11,0,6.28,0,9.44,0,16.65,0,32.72.27,47.84.8,2.42.07,4.8.16,7.16.24l9.33.41h0l2.43.13c2.09.09,4.16.2,6.21.31C950,222.7,986.07,228.67,986.07,235.59Z"/><path class="cls-15" d="M986.07,235.59c0,7.26-39.69,13.49-96.55,16.23-1.51.06-3,.13-4.56.22l-6.15.24c-8.52.34-17.38.58-26.51.78-1.36,0-2.72,0-4.1.07l-2.33,0q-10.53.16-21.46.16c-13.18,0-26-.18-38.25-.49-3-.09-6-.18-8.93-.29-22.37-.74-42.67-2-59.77-3.65-33.55-3.25-54.72-8-54.72-13.29,0-2.36,4.21-4.63,11.85-6.68,9.48,2.56,24.28,4.81,42.87,6.61,17.1,1.65,37.4,2.92,59.77,3.65,2.94.11,5.93.2,8.93.29,12.27.31,25.07.49,38.25.49q10.92,0,21.46-.15c.78,0,1.56,0,2.33,0,1.38,0,2.74-.06,4.1-.06,9.13-.2,18-.45,26.51-.78,2.07-.09,4.12-.18,6.15-.25,1.53-.09,3-.15,4.56-.22,38.36-1.85,68.88-5.28,84.71-9.55C981.86,231,986.07,233.21,986.07,235.59Z"/><path class="cls-16" d="M813.65,217.91a12.53,12.53,0,0,1-2.85,7.24c-1.84,2.2-3.42,3.92-5.23,5.76-1.07,1.09-2.13,2.19-3.22,3.21-.72.73-1.45,1.42-2.19,2.09a120.61,120.61,0,0,1-11.93,9.71c-.24.18-.49.33-.73.51-.65.45-1.29.87-1.94,1.29a72,72,0,0,1-8.33,4.81c-1.06.53-2.16,1.05-3.29,1.54a61,61,0,0,1-8.21,2.76c-2.5.66-4.88,1.24-7.24,1.73-3.32.74-6.59,1.4-9.86,2-6.08,1.18-12.13,2.18-18.23,3.11-5.19.78-10.38,1.52-15.59,2.14-4.18.51-8.37,1-12.6,1.31a5.45,5.45,0,0,1-1.4,0,6.25,6.25,0,0,1-5.39-5.68,5.88,5.88,0,0,1,0-.84,6.2,6.2,0,0,1,4.12-5.57l0,0a3.8,3.8,0,0,1,.54-.18c5.76-2.07,11.55-4,17.36-5.92,2.94-1,5.86-1.92,8.8-2.85,8.88-2.89,17.83-5.61,26.46-8.48,2.16-.71,4.3-1.45,6.28-2.16a25.58,25.58,0,0,0,4.9-2.25c1-.58,2-1.22,3-1.91a79.05,79.05,0,0,0,6.48-4.88c2.93-2.43,5.87-5.1,8.74-7.88,4.61-.13,9.29-.25,14.05-.33C801.92,218,807.75,218,813.65,217.91Z"/><path class="cls-12" d="M813.92,226.91c-.15.46-.33.91-.51,1.35s-.38.89-.6,1.34a10.19,10.19,0,0,1-.67,1.27c-.24.42-.49.84-.73,1.27a.41.41,0,0,0-.07.11c-.51.78-1.05,1.54-1.6,2.27a29.32,29.32,0,0,1-1.9,2.25l-.62.69a40.47,40.47,0,0,1-3.07,2.94c-.36.33-.74.64-1.11.93a2.74,2.74,0,0,1-.43.36.23.23,0,0,1-.09.06v0a69.72,69.72,0,0,1-10.68,7l-1.36.69-.07,0c-.55.29-1,.51-1.33.67s-.52.22-.52.22L786.94,249l-1.38-1.25L782.44,245l-15.51-13.73-1.18-1s4.76-5.32,11.22-11.53c1.71-.07,3.45-.11,5.18-.18,4.61-.13,9.29-.25,14.05-.33,5.72-.12,11.55-.18,17.45-.23l1.3,0A21.22,21.22,0,0,1,813.92,226.91Z"/><path class="cls-17" d="M813.94,226.91a13,13,0,0,1-.53,1.35c-.18.45-.38.89-.6,1.34a10.19,10.19,0,0,1-.67,1.27c-.24.42-.49.84-.73,1.27a.41.41,0,0,0-.07.11c-.51.78-1.05,1.54-1.6,2.27a29.32,29.32,0,0,1-1.9,2.25l-.62.69a40.47,40.47,0,0,1-3.07,2.94c-.36.33-.74.64-1.11.93a2.74,2.74,0,0,1-.43.36s-.06.06-.09.09a69.72,69.72,0,0,1-10.68,7l-1.36.69-.07,0c-.55.29-1,.51-1.33.67s-.52.22-.52.22L786.94,249l-1.38-1.25L782.44,245l-15.51-13.73-1.18-1s4.76-5.32,11.22-11.53c1.71-.07,3.45-.11,5.18-.18,4.61-.13,9.29-.25,14.05-.33,5.72-.12,11.55-.18,17.45-.23l1.3,0h0A21,21,0,0,1,813.94,226.91Z"/><path class="cls-18" d="M802.52,241.78a67.9,67.9,0,0,1-14,8.61L782.44,245c4.48-14.78,16.82-24.37,16.82-24.37C802,225.67,802.85,236.46,802.52,241.78Z"/><path class="cls-19" d="M701.87,255.07l-20.69-3.16.17,18.3s14.15,4.24,21.64-5.37Z"/><polygon class="cls-19" points="667.12 256.84 670.51 270.45 681.35 270.21 681.18 251.91 667.12 256.84"/><path class="cls-12" d="M888.74,219.32c-.18.46-.38.93-.55,1.42-.54,1.36-1.05,2.74-1.54,4.12-.31.84-.6,1.69-.89,2.56s-.6,1.73-.87,2.6c-.82,2.59-1.62,5.19-2.4,7.84,0,.13-.07.29-.11.42-.83,2.94-1.59,5.94-2.34,8.95l-.09.36c-.38,1.56-.78,3.11-1.14,4.69-.17.72-.33,1.41-.49,2.12-.6,2.74-1.18,5.5-1.71,8.24,0,0,0,0,0,0-.2,1-.4,2-.58,3s-.42,2.14-.6,3.18a5.2,5.2,0,0,0-.11.67c-.11.58-.23,1.16-.32,1.74-.28,1.62-.55,3.22-.82,4.8,0,.25-.07.47-.11.72l-.27,1.67c-.53,3.25-1,6.43-1.42,9.52a3.38,3.38,0,0,0-.09.54c-.47,3.4-.87,6.7-1.23,9.86-.15,1.31-.31,2.61-.44,3.87-.2,1.79-.38,3.5-.54,5.17-.13,1.22-.24,2.43-.35,3.58s-.2,2.16-.29,3.19-.18,2-.27,3c-.22,2.72-.4,5.17-.55,7.28-.07.94-.12,1.78-.18,2.58-.18,3-.27,5-.31,6,0,.38,0,.58,0,.58L828.61,330l-.58,0-6.63-.63-10-.93h0l-12.07-1.12-2.91-.26-14.76-1.36c-.07-1.4-.14-2.76-.16-4.14v0c0-.37,0-.75,0-1.13-.43-12.16-.2-23.31.44-33.48.36-5.28.83-10.31,1.38-15.07.8-6.86,1.81-13.16,2.94-19,.25-1.31.51-2.61.78-3.85v0c.18-.87.36-1.7.56-2.52A193.27,193.27,0,0,1,793,226.66v0c1.07-3.12,2.13-5.94,3.18-8.5,5.72-.12,11.55-.18,17.45-.23l1.3,0h0c3.11,0,6.28,0,9.44,0,16.65,0,32.72.27,47.84.8,2.42.07,4.8.16,7.16.24Z"/><path class="cls-17" d="M888.74,219.32c-.18.46-.38.93-.55,1.42-.54,1.36-1.05,2.74-1.54,4.12-.31.84-.6,1.69-.89,2.56s-.6,1.73-.87,2.6a1.11,1.11,0,0,1-.07.16c-.82,2.54-1.58,5.07-2.33,7.68,0,.13-.07.29-.11.42-1.07,3.79-2.07,7.64-3,11.51-.2.83-.38,1.67-.56,2.49s-.33,1.41-.49,2.12c-.6,2.74-1.18,5.5-1.71,8.24-.22,1-.42,2-.6,3.07s-.4,2.11-.58,3.16a5.58,5.58,0,0,0-.13.69c-.11.58-.23,1.16-.32,1.74-.28,1.62-.55,3.22-.82,4.8,0,.25-.07.47-.11.72l-.27,1.67c-.51,3.25-1,6.43-1.42,9.52a3.38,3.38,0,0,0-.09.54c-.47,3.4-.87,6.7-1.23,9.86-.15,1.31-.31,2.61-.44,3.87-.2,1.79-.38,3.5-.54,5.17-.13,1.22-.24,2.43-.35,3.58s-.2,2.16-.29,3.19-.18,2-.27,3c-.22,2.72-.4,5.17-.55,7.28-.07.94-.12,1.78-.18,2.58-.18,3-.27,5-.31,6,0,.38,0,.58,0,.58L828.61,330l-.58,0-6.63-.63-10-.93h0l-12.07-1.12-2.91-.26-14.76-1.36c-.07-1.4-.14-2.76-.16-4.14v0c0-.37,0-.75,0-1.13-.43-12.16-.2-23.31.44-33.48.36-5.28.83-10.31,1.38-15.07.8-6.86,1.81-13.16,2.94-19,.25-1.31.51-2.61.78-3.85v0c.18-.87.36-1.7.56-2.52A193.27,193.27,0,0,1,793,226.66v0c1.07-3.12,2.13-5.94,3.18-8.5,5.72-.12,11.55-.18,17.45-.23l1.3,0h0c3.11,0,6.28,0,9.44,0,16.65,0,32.72.27,47.84.8,2.42.07,4.8.16,7.16.24Z"/><path d="M675.65,514.8s27.86-11.5,28.78-23a2,2,0,0,1,2.15-1.9l21.25,1.3a2.78,2.78,0,0,1,2.32,1.64l8.51,19.65-5.89.81-2.49-2.69-2.15,3.32c-32,4.37-45.81,5.92-52.41,4.79C674.42,516,675.65,514.8,675.65,514.8Z"/><path class="cls-7" d="M806.06,399.18c-1.22-.27-1.89-.45-1.89-.45L704,386.2l29.79,106.09-30.34,2.89s-69.19-133.46-40.91-152.72,115.93,2,115.93,2l3.44-26.42,87.18,6.49C883.1,411.65,818.1,401.71,806.06,399.18Z"/><path d="M777.2,705.65s30-2.88,34.25-13.65a2,2,0,0,1,2.61-1.19l20,7.44a2.8,2.8,0,0,1,1.75,2.25l2.4,21.27-5.86-.94-1.6-3.3-3,2.55c-31.84-5.13-45.55-7.69-51.53-10.7C775.68,706.42,777.2,705.65,777.2,705.65Z"/><path class="cls-7" d="M870,356.11v0c-.12.53-3.75,17.24-8.5,41.16-.26,1.37-.54,2.78-.81,4.19-2.23,11.38-4.67,24.17-7.08,37.51-3,16.24-5.85,33.29-8.3,49.58-3.54,23.57-6.12,45.54-6.48,61.25-1.17,51.56-3.31,153.35-3.31,153.35l-27.78-4.37s-15.34-108.54-15.16-161.11c.13-33.41,8.43-102.19,14.07-145,2.86-22,5-37.08,5-37.08l31.46.27Z"/><polygon class="cls-7" points="867.77 333.03 869.62 333.18 869.55 327.16 867.91 327.04 867.77 333.03"/><polygon class="cls-7" points="799.26 327.71 836.44 330.6 836.61 324.62 799.57 321.75 799.26 327.71"/><polygon class="cls-7" points="796.71 321.53 780.98 320.32 780.42 326.25 796.33 327.48 796.71 321.53"/><polygon class="cls-7" points="865.04 326.81 839.47 324.84 839.36 330.83 864.84 332.81 865.04 326.81"/><g class="cls-20"><polygon class="cls-5" points="867.77 333.03 869.62 333.18 869.55 327.16 867.91 327.04 867.77 333.03"/><polygon class="cls-5" points="799.26 327.71 836.44 330.6 836.61 324.62 799.57 321.75 799.26 327.71"/><polygon class="cls-5" points="796.71 321.53 780.98 320.32 780.42 326.25 796.33 327.48 796.71 321.53"/><polygon class="cls-5" points="865.04 326.81 839.47 324.84 839.36 330.83 864.84 332.81 865.04 326.81"/></g><path class="cls-21" d="M810.89,323.76l-.15,3.63a1.1,1.1,0,0,0,1,1.13l9.27.86a1.09,1.09,0,0,0,1.19-1.06l.09-3.78a1.09,1.09,0,0,0-1-1.11l-9.21-.71A1.08,1.08,0,0,0,810.89,323.76Z"/><line class="cls-22" x1="818.13" y1="326.05" x2="820.96" y2="326.32"/><path class="cls-18" d="M882.37,238.28c-1.07,3.79-2.07,7.64-3,11.51-.36,1.54-.71,3.07-1,4.61-1.67,7.55-3.09,15.12-4.27,22.42l-.27,1.67c-15.29,4.92-31.19,1.53-30.65-13.2.73-19.75,17.56-29,17.56-29C868.08,232.25,876.05,233.9,882.37,238.28Z"/><polygon class="cls-7" points="732.76 803.76 753.35 803.76 686.4 274.6 665.81 274.6 732.76 803.76"/><polygon class="cls-15" points="732.76 803.76 753.35 803.76 686.4 274.6 665.81 274.6 732.76 803.76"/><path class="cls-7" d="M689.72,353h65.45a4.29,4.29,0,0,0,3.77-2.67l4.16-8.82H681.79l4.16,8.82A4.29,4.29,0,0,0,689.72,353Z"/><path class="cls-15" d="M689.72,353h65.45a4.29,4.29,0,0,0,3.77-2.67l4.16-8.82H681.79l4.16,8.82A4.29,4.29,0,0,0,689.72,353Z"/><rect class="cls-7" x="678.64" y="336.29" width="87.61" height="9.46" rx="1.91" ry="1.91" transform="translate(1444.89 682.04) rotate(180)"/><rect class="cls-23" x="678.64" y="336.29" width="87.61" height="9.46" rx="1.91" ry="1.91" transform="translate(1444.89 682.04) rotate(180)"/><path class="cls-7" d="M701.66,428.67h65.45a4.28,4.28,0,0,0,3.77-2.67l4.16-8.81H693.73l4.16,8.81A4.27,4.27,0,0,0,701.66,428.67Z"/><path class="cls-15" d="M701.66,428.67h65.45a4.28,4.28,0,0,0,3.77-2.67l4.16-8.81H693.73l4.16,8.81A4.27,4.27,0,0,0,701.66,428.67Z"/><rect class="cls-7" x="690.58" y="411.93" width="87.61" height="9.46" rx="1.91" ry="1.91" transform="translate(1468.77 833.31) rotate(180)"/><rect class="cls-23" x="690.58" y="411.93" width="87.61" height="9.46" rx="1.91" ry="1.91" transform="translate(1468.77 833.31) rotate(180)"/><path class="cls-7" d="M713.6,528.81h65.45a4.29,4.29,0,0,0,3.77-2.68l4.16-8.81H705.67l4.16,8.81A4.28,4.28,0,0,0,713.6,528.81Z"/><path class="cls-15" d="M713.6,528.81h65.45a4.29,4.29,0,0,0,3.77-2.68l4.16-8.81H705.67l4.16,8.81A4.28,4.28,0,0,0,713.6,528.81Z"/><rect class="cls-7" x="702.52" y="512.06" width="87.61" height="9.46" rx="1.91" ry="1.91" transform="translate(1492.65 1033.57) rotate(180)"/><rect class="cls-23" x="702.52" y="512.06" width="87.61" height="9.46" rx="1.91" ry="1.91" transform="translate(1492.65 1033.57) rotate(180)"/><path class="cls-7" d="M725.53,628.94H791a4.29,4.29,0,0,0,3.77-2.68l4.16-8.81H717.61l4.15,8.81A4.3,4.3,0,0,0,725.53,628.94Z"/><path class="cls-15" d="M725.53,628.94H791a4.29,4.29,0,0,0,3.77-2.68l4.16-8.81H717.61l4.15,8.81A4.3,4.3,0,0,0,725.53,628.94Z"/><rect class="cls-7" x="714.45" y="612.19" width="87.61" height="9.46" rx="1.91" ry="1.91" transform="translate(1516.52 1233.83) rotate(180)"/><rect class="cls-23" x="714.45" y="612.19" width="87.61" height="9.46" rx="1.91" ry="1.91" transform="translate(1516.52 1233.83) rotate(180)"/><path class="cls-7" d="M737.47,729.07h65.46a4.29,4.29,0,0,0,3.77-2.68l4.16-8.81H729.54l4.16,8.81A4.29,4.29,0,0,0,737.47,729.07Z"/><path class="cls-15" d="M737.47,729.07h65.46a4.29,4.29,0,0,0,3.77-2.68l4.16-8.81H729.54l4.16,8.81A4.29,4.29,0,0,0,737.47,729.07Z"/><rect class="cls-7" x="726.39" y="712.32" width="87.61" height="9.46" rx="1.91" ry="1.91" transform="translate(1540.4 1434.09) rotate(180)"/><rect class="cls-23" x="726.39" y="712.32" width="87.61" height="9.46" rx="1.91" ry="1.91" transform="translate(1540.4 1434.09) rotate(180)"/><polygon class="cls-7" points="812.25 803.76 832.84 803.76 765.89 274.6 745.3 274.6 812.25 803.76"/><polygon class="cls-17" points="812.25 803.76 832.84 803.76 765.89 274.6 745.3 274.6 812.25 803.76"/><polygon class="cls-7" points="596.07 803.76 575.48 803.76 642.43 274.6 663.02 274.6 596.07 803.76"/><polygon class="cls-15" points="596.07 803.76 575.48 803.76 642.43 274.6 663.02 274.6 596.07 803.76"/><path class="cls-7" d="M718.6,353H653.15a4.29,4.29,0,0,1-3.77-2.67l-4.16-8.82h81.31l-4.16,8.82A4.3,4.3,0,0,1,718.6,353Z"/><path class="cls-24" d="M718.6,353H653.15a4.29,4.29,0,0,1-3.77-2.67l-4.16-8.82h81.31l-4.16,8.82A4.3,4.3,0,0,1,718.6,353Z"/><rect class="cls-7" x="642.07" y="336.29" width="87.61" height="9.46" rx="1.91" ry="1.91"/><rect class="cls-25" x="642.07" y="336.29" width="87.61" height="9.46" rx="1.91" ry="1.91"/><path class="cls-7" d="M706.66,428.67H641.21a4.28,4.28,0,0,1-3.77-2.67l-4.16-8.81h81.31L710.43,426A4.27,4.27,0,0,1,706.66,428.67Z"/><path class="cls-24" d="M706.66,428.67H641.21a4.28,4.28,0,0,1-3.77-2.67l-4.16-8.81h81.31L710.43,426A4.27,4.27,0,0,1,706.66,428.67Z"/><rect class="cls-7" x="630.13" y="411.93" width="87.61" height="9.46" rx="1.91" ry="1.91"/><rect class="cls-25" x="630.13" y="411.93" width="87.61" height="9.46" rx="1.91" ry="1.91"/><path class="cls-7" d="M694.72,528.81H629.27a4.29,4.29,0,0,1-3.77-2.68l-4.16-8.81h81.31l-4.16,8.81A4.28,4.28,0,0,1,694.72,528.81Z"/><path class="cls-24" d="M694.72,528.81H629.27a4.29,4.29,0,0,1-3.77-2.68l-4.16-8.81h81.31l-4.16,8.81A4.28,4.28,0,0,1,694.72,528.81Z"/><rect class="cls-7" x="618.19" y="512.06" width="87.61" height="9.46" rx="1.91" ry="1.91"/><rect class="cls-25" x="618.19" y="512.06" width="87.61" height="9.46" rx="1.91" ry="1.91"/><path class="cls-7" d="M682.79,628.94H617.33a4.29,4.29,0,0,1-3.77-2.68l-4.16-8.81h81.31l-4.15,8.81A4.3,4.3,0,0,1,682.79,628.94Z"/><path class="cls-24" d="M682.79,628.94H617.33a4.29,4.29,0,0,1-3.77-2.68l-4.16-8.81h81.31l-4.15,8.81A4.3,4.3,0,0,1,682.79,628.94Z"/><rect class="cls-7" x="606.25" y="612.19" width="87.61" height="9.46" rx="1.91" ry="1.91"/><rect class="cls-25" x="606.25" y="612.19" width="87.61" height="9.46" rx="1.91" ry="1.91"/><path class="cls-7" d="M670.85,729.07H605.39a4.29,4.29,0,0,1-3.77-2.68l-4.16-8.81h81.32l-4.16,8.81A4.29,4.29,0,0,1,670.85,729.07Z"/><path class="cls-24" d="M670.85,729.07H605.39a4.29,4.29,0,0,1-3.77-2.68l-4.16-8.81h81.32l-4.16,8.81A4.29,4.29,0,0,1,670.85,729.07Z"/><rect class="cls-7" x="594.31" y="712.32" width="87.61" height="9.46" rx="1.91" ry="1.91"/><rect class="cls-25" x="594.31" y="712.32" width="87.61" height="9.46" rx="1.91" ry="1.91"/><polygon class="cls-7" points="675.56 803.76 654.97 803.76 721.92 274.6 742.51 274.6 675.56 803.76"/><polygon class="cls-17" points="675.56 803.76 654.97 803.76 721.92 274.6 742.51 274.6 675.56 803.76"/><path class="cls-7" d="M769.19,277.3H638.69a4.31,4.31,0,0,1-3.77-2.67l-4.15-8.81H777.11L773,274.63A4.31,4.31,0,0,1,769.19,277.3Z"/><path class="cls-24" d="M769.19,277.3H638.69a4.31,4.31,0,0,1-3.77-2.67l-4.15-8.81H777.11L773,274.63A4.31,4.31,0,0,1,769.19,277.3Z"/><rect class="cls-7" x="627.62" y="260.56" width="152.65" height="9.46" rx="1.91" ry="1.91"/><rect class="cls-25" x="627.62" y="260.56" width="152.65" height="9.46" rx="1.91" ry="1.91"/><path class="cls-19" d="M778.31,275.1,761.2,263l-8,16.45S764,289.6,775,284.34Z"/><polygon class="cls-19" points="746.42 261.18 743.38 274.87 753.18 279.49 761.2 263.04 746.42 261.18"/><path class="cls-16" d="M895.33,237c-3.36,5.18-6.79,10.15-10.37,15-2.7,3.58-5.46,7.12-8.35,10.6,0,0,0,0,0,0-.87,1.07-1.76,2.11-2.65,3.16-1.76,2-3.54,4.05-5.41,6.05-2.32,2.5-4.74,4.95-7.35,7.35l-1.49,1.34h0a71.38,71.38,0,0,1-6.13,5.05,44,44,0,0,1-10.35,5.77,24,24,0,0,1-3.36,1c-1.09.27-2,.4-3,.58a51.26,51.26,0,0,1-5.32.44c-3.36.12-6.5,0-9.59-.15-6.15-.34-12.07-1.16-17.92-2-7.48-1.18-14.83-2.65-22.11-4.38-2.69-.63-5.36-1.32-8-2-1.43-.38-2.83-.78-4.26-1.18a6.21,6.21,0,0,1-4.52-6.37,7.72,7.72,0,0,1,.23-1.33,6.16,6.16,0,0,1,5.07-4.48,4.87,4.87,0,0,1,1.14-.08l.11,0c.51,0,1,0,1.56,0,3.36.11,6.72.25,10.08.34,7.5.26,15,.46,22.35.57,5.59.12,11.18.05,16.5-.17,2.67-.11,5.28-.34,7.63-.67s4.55-.8,5.13-1.27a25.25,25.25,0,0,0,4.31-3.14c1.34-1.16,2.74-2.45,4.12-3.85.4-.38.78-.78,1.16-1.18.78-.8,1.54-1.65,2.27-2.49,1.91-2.1,3.76-4.28,5.61-6.53.82-1,1.67-2,2.49-3.09,4-5.05,8-10.37,11.85-15.74,2.62-3.63,5.21-7.3,7.7-10.91l.13-.22a12.34,12.34,0,0,1,4.94-4.19l9.33.41h0l2.43.13a6.07,6.07,0,0,1,.74.47A12.56,12.56,0,0,1,895.33,237Z"/><path class="cls-12" d="M889.52,251.82a130,130,0,0,1-14.09,17.05s0,0,0,0c-1.38,1.43-2.85,2.9-4.39,4.39l-2.49-1.41-21.84-12.28-2-1.14s1.43-2.11,3.54-5.32c2.65-4,6.42-9.73,9.91-15.11,2.72-4.23,5.25-8.26,6.92-11.11a28.68,28.68,0,0,1,7.22-8.24c2.42.07,4.8.16,7.16.24l9.33.41h0l2.43.13c2.09.09,4.16.2,6.21.31C900.21,226.42,899.58,237,889.52,251.82Z"/><path class="cls-17" d="M889.52,251.82a130,130,0,0,1-14.09,17.05s0,0,0,0c-1.38,1.43-2.85,2.9-4.39,4.39l-2.49-1.41-21.84-12.28-2-1.14s1.43-2.11,3.54-5.32c2.65-4,6.42-9.73,9.91-15.11,2.72-4.23,5.25-8.26,6.92-11.11a28.68,28.68,0,0,1,7.22-8.24c2.42.07,4.8.16,7.16.24l9.33.41h0l2.43.13c2.09.09,4.16.2,6.21.31C900.21,226.42,899.58,237,889.52,251.82Z"/><path class="cls-7" d="M564,803.38a1.58,1.58,0,0,1-.05.38.58.58,0,0,1,0,.18,2.13,2.13,0,0,1-.11.33,2.39,2.39,0,0,1-.25.43,3.15,3.15,0,0,1-.33.44,11.19,11.19,0,0,1-3.65,2.38c-.34.16-.71.32-1.09.47-1.07.45-2.27.87-3.63,1.29-.85.27-1.74.52-2.7.78-15.6,4.21-45.52,7.59-83.16,9.46l-4.41.23-7.3.31-7.51.27-5.18.17c-4.12.11-8.29.23-12.51.29-.52,0-1,.05-1.54.05-1,0-1.92,0-2.87,0s-1.85,0-2.79,0c-3.89.06-7.83.11-11.79.13l-1.29,0h0c-3.11,0-6.27,0-9.44,0-13,0-25.66-.15-37.77-.49h0c-1.8,0-3.6-.11-5.38-.17-1.56,0-3.12-.09-4.66-.14-2.42-.06-4.8-.15-7.16-.24l-9.33-.4h0l-2.43-.14c-2.09-.09-4.16-.2-6.21-.31-10.22-.58-19.81-1.24-28.63-2.05-21.1-1.87-37.82-4.29-48.2-7.1-.31-.09-.6-.15-.89-.24s-.66-.18-1-.29c-1.67-.49-3.11-1-4.38-1.49-.47-.2-.91-.38-1.32-.58a18.67,18.67,0,0,1-1.93-1.05,4,4,0,0,1-.6-.42c-.18-.13-.34-.25-.49-.38a4.17,4.17,0,0,1-.47-.47,2.42,2.42,0,0,1-.33-.42,2.48,2.48,0,0,1-.36-.78c0-.07-.05-.16-.07-.24a1.72,1.72,0,0,1,0-.32c0-7.25,39.69-13.49,96.55-16.22,1.51-.07,3-.14,4.56-.23,2-.06,4.08-.15,6.15-.24l9.44-.34c1.67,0,3.38-.11,5.09-.15q5.91-.16,12-.29h.65c1.13,0,2.29,0,3.45-.07l2.33,0c3.52-.07,7.06-.09,10.64-.11h0c.33,0,.69,0,1,0h0c3.23-.05,6.48-.05,9.75-.05,13.18,0,26,.18,38.25.49,3,.09,6,.18,8.93.29l3.78.14h.05a1.83,1.83,0,0,1,.33,0c1.4,0,2.76.09,4.14.15.91,0,1.8.07,2.72.12,2.38.09,4.71.2,7,.31h0l6.61.33c12.74.69,24.54,1.56,35.09,2.58C542.81,793.34,564,798.09,564,803.38Z"/><path class="cls-15" d="M240.66,803.39c0-7.26,39.69-13.49,96.54-16.23,1.52-.07,3-.13,4.57-.22,2-.07,4.07-.16,6.14-.25,8.53-.33,17.39-.57,26.52-.78,1.35,0,2.71,0,4.09-.06l2.34,0c7-.12,14.18-.16,21.46-.16,13.18,0,26,.18,38.24.49,3,.09,6,.18,8.93.29,22.37.73,42.68,2,59.77,3.65,33.55,3.25,54.72,8,54.72,13.29,0,2.36-4.2,4.63-11.84,6.68-9.48-2.56-24.29-4.81-42.88-6.61-17.09-1.65-37.4-2.92-59.77-3.65-2.94-.12-5.92-.2-8.93-.29-12.26-.31-25.06-.49-38.24-.49-7.28,0-14.45,0-21.46.15l-2.34,0c-1.38,0-2.74.06-4.09.06-9.13.2-18,.45-26.52.78-2.07.09-4.12.18-6.14.25l-4.57.22c-38.35,1.85-68.87,5.27-84.7,9.55C244.86,808,240.66,805.77,240.66,803.39Z"/><path class="cls-16" d="M388.71,795.17c-1.22,1.47-2.36,2.74-3.49,4-.58.6-1.14,1.2-1.74,1.81-1.07,1.09-2.11,2.15-3.21,3.2-.71.71-1.44,1.4-2.18,2.09a119.21,119.21,0,0,1-11.95,9.71c-.25.16-.47.33-.71.49-.63.44-1.27.87-1.94,1.31h0c-1.4.94-2.85,1.85-4.34,2.7-1.56,0-3.12-.09-4.66-.14-2.42-.06-4.8-.15-7.16-.24l-9.33-.4h0l-2.43-.14c-2.09-.09-4.16-.2-6.21-.31-10.22-.58-19.81-1.24-28.63-2.05,1.16-.37,2.32-.73,3.47-1.11,8.88-2.89,17.86-5.61,26.49-8.46,2.16-.73,4.3-1.45,6.28-2.18a25.58,25.58,0,0,0,4.9-2.25c1-.58,2-1.22,3-1.91.53-.36,1.09-.74,1.64-1.16h0c1.6-1.14,3.2-2.4,4.78-3.72,3.21-2.63,6.35-5.52,9.46-8.52l1.67-1.65c1-1,2-1.92,2.94-2.92l4.37-4.52.26-.29a12.61,12.61,0,0,1,10.51-3.78,12.42,12.42,0,0,1,11,11h0A12.6,12.6,0,0,1,388.71,795.17Z"/><path class="cls-12" d="M383.72,769.62c-12.42-.29-40.05,30.59-40.05,30.59l22.81,20.2s20.38-8.8,25.37-23.48S383.72,769.62,383.72,769.62Z"/><path class="cls-17" d="M391.86,796.93c-2.07,6-6.68,11-11.42,14.87a67.93,67.93,0,0,1-14,8.62L360.36,815,343.67,800.2s27.62-30.87,40.05-30.58C383.72,769.62,396.85,782.26,391.86,796.93Z"/><path class="cls-18" d="M380.44,811.8a67.93,67.93,0,0,1-14,8.62L360.36,815c4.49-14.78,16.82-24.37,16.82-24.37C379.9,795.69,380.78,806.48,380.44,811.8Z"/><path class="cls-12" d="M469.52,782.64v0h0v0c-.13.29-.27.56-.38.85-.36.78-.69,1.56-1,2.36a13.08,13.08,0,0,0-.54,1.27,1.83,1.83,0,0,0-.11.26,9.26,9.26,0,0,0-.42,1c-.38.89-.74,1.8-1.09,2.74-.45,1.15-.87,2.33-1.29,3.51,0,0,0,.12-.07.16-.31.85-.6,1.69-.89,2.56s-.6,1.74-.87,2.6a1.43,1.43,0,0,0-.09.27c-.27.8-.53,1.6-.78,2.41-.51,1.69-1,3.38-1.51,5.12l-.13.46c-1.07,3.79-2.07,7.64-3,11.51a1.09,1.09,0,0,0,0,.25l-7.51.27-5.18.17c-4.12.11-8.29.23-12.51.29-.52,0-1,.05-1.54.05-1,0-1.92,0-2.87,0s-1.85,0-2.79,0c-3.89.06-7.83.11-11.79.13l-1.29,0h0c-3.11,0-6.27,0-9.44,0-13,0-25.66-.15-37.77-.49h0c.12-.55.23-1.11.34-1.64v0c.09-.35.15-.69.24-1s.14-.67.23-1c0-.18.08-.33.11-.49,1-4.39,2-8.44,3.11-12.18.4-1.29.76-2.51,1.14-3.74.13-.38.24-.75.38-1.13v0c.29-.91.58-1.78.87-2.62,0,0,0,0,0,0v0c.15-.46.31-.91.46-1.35v0c.25-.69.49-1.38.74-2s.56-1.54.82-2.25.49-1.27.74-1.87v0l1.33-3.23c1-2.45,2-4.59,3-6.48.18-.31.34-.64.49-1,.34-.64.65-1.22.94-1.8s.76-1.38,1.09-2a2.48,2.48,0,0,0,.18-.31c.38-.69.75-1.32,1.09-1.85l.87-1.38c.6-.89.95-1.4,1-1.51v0h0a158.12,158.12,0,0,1,19.88-.64c1.4,0,2.82.11,4.27.2s2.76.22,4.27.4c3.19.35,6.73.84,10.4,1.45,2.31.37,4.65.77,7,1.2s4.65.84,6.88,1.29c.4.07.78.15,1.18.24h0c1.76.34,3.47.69,5.05,1,1.09.22,2.16.47,3.25.73.56.14,1.1.25,1.63.4l1.62.4c2,.52,4,1.07,5.93,1.61.62.17,1.24.38,1.84.55,1.21.36,2.36.72,3.45,1.07s2.1.67,3,1c3.45,1.14,5.75,2,6.08,2.09C469.5,782.61,469.52,782.61,469.52,782.64Z"/><path class="cls-17" d="M469.54,782.64l0,0h0v0c-.13.29-.27.56-.38.85-.36.78-.71,1.56-1,2.36-.2.42-.38.84-.54,1.27h0a1.61,1.61,0,0,0-.09.26,9.26,9.26,0,0,0-.42,1c-.38.89-.74,1.8-1.09,2.74-.45,1.15-.89,2.33-1.29,3.51,0,0,0,.12-.07.16-.31.85-.6,1.69-.89,2.56s-.6,1.74-.87,2.6a.77.77,0,0,1-.07.16.23.23,0,0,0,0,.11c-.27.8-.53,1.6-.78,2.41-.51,1.69-1,3.38-1.51,5.12l-.13.46c-1.07,3.79-2.07,7.64-3,11.51a1.09,1.09,0,0,0,0,.25l-7.51.27-5.18.17c-4.12.11-8.29.23-12.51.29-.52,0-1,.05-1.54.05-1,0-1.92,0-2.87,0s-1.85,0-2.79,0c-3.89.06-7.83.11-11.79.13l-1.29,0h0c-3.11,0-6.27,0-9.44,0-13,0-25.66-.15-37.77-.49q.16-.83.33-1.62v0c.16-.72.29-1.38.45-2.05,0-.18.08-.33.11-.49,1-4.39,2-8.44,3.11-12.18.4-1.29.76-2.51,1.14-3.74.13-.38.24-.75.38-1.13v0c.29-.91.58-1.78.87-2.62,0,0,0,0,0,0v0c.15-.46.31-.91.46-1.35v0c.25-.69.49-1.38.74-2s.56-1.54.82-2.25.49-1.27.74-1.87v0l1.33-3.23h0c1-2.45,2-4.59,2.93-6.48.18-.31.34-.64.49-1,.34-.64.65-1.22.94-1.8s.76-1.38,1.09-2a2.48,2.48,0,0,0,.18-.31c.4-.69.78-1.32,1.09-1.85l.87-1.38c.6-.89.95-1.4,1-1.51l0,0a158.12,158.12,0,0,1,19.88-.64c1.4,0,2.82.11,4.27.2s2.76.22,4.27.4c3.19.35,6.73.84,10.4,1.45,2.31.37,4.65.77,7,1.2s4.65.84,6.88,1.29c.4.07.78.15,1.18.24h0c1.76.34,3.47.69,5.05,1,1.09.22,2.16.47,3.25.73.56.14,1.1.25,1.63.4s1.09.25,1.62.38c2,.51,4,1.07,5.93,1.63.62.17,1.24.38,1.84.55,1.21.36,2.36.72,3.45,1.07s2.1.67,3,1c3.45,1.14,5.75,2,6.08,2.09,0,0,0,0,0,0Z"/><path class="cls-19" d="M429.26,742.42s.7,23.68,3,27.19,10.37,5.15,10.37,5.15-19.53,9.71-28.66,7.89-13.52-13.75-13.52-13.75,6.38.26,7.92-.62-1.21-16.55-1.21-16.55Z"/><path class="cls-20" d="M409,757.61s-.8,1.17-.8,1.15c-.49-3.67-1.07-7-1.07-7l22.13-9.31s.58,19.08,2.31,25.53C422.54,768.89,412.06,762.26,409,757.61Z"/><path class="cls-7" d="M421.7,702.65c6.06,3.14,14.72,13.39,5.22,16.75S411.3,697.23,421.7,702.65Z"/><path class="cls-19" d="M394.78,742c6,6.73,10.46,12.13,15.14,15.92a25.89,25.89,0,0,0,13.78,6c17.93,2.22,29.34-16.73,22.16-32.38a47.9,47.9,0,0,0-2.8-5.23c-7.79-12.87-22.82-26.38-37.69-22C388.69,709.29,383.66,729.52,394.78,742Z"/><path class="cls-7" d="M402.11,741l.72,2.62A49.83,49.83,0,0,0,409.92,758a25.89,25.89,0,0,0,13.78,6c17.93,2.22,29.34-16.73,22.16-32.38a47.9,47.9,0,0,0-2.8-5.23s1.35,6.26.18,9.19c0,0-6.69-1.71-9.95,1,0,0-7.1-1.93-13.11,5.56C420.18,742.1,411.16,748.44,402.11,741Z"/><path class="cls-24" d="M402.11,741l.72,2.62A49.83,49.83,0,0,0,409.92,758a25.89,25.89,0,0,0,13.78,6c17.93,2.22,29.34-16.73,22.16-32.38a47.9,47.9,0,0,0-2.8-5.23s1.35,6.26.18,9.19c0,0-6.69-1.71-9.95,1,0,0-7.1-1.93-13.11,5.56C420.18,742.1,411.16,748.44,402.11,741Z"/><path class="cls-7" d="M376.15,733.71c-8.08-6.78-.42-16.59,8-19.94a4.64,4.64,0,0,0,2.32-1.83l10,15.42c-.91.44-1.82.85-2.68,1.18,0,0,11.72,10.39,10.58,20.72C388,753.79,372.23,745.36,376.15,733.71Z"/><path class="cls-19" d="M398.32,757a15.69,15.69,0,0,0,11.86,2.39,9.79,9.79,0,0,0,1.17-.32l0,0c3.38-3.17-6.64-14.37-7.15-14.95l0,0a7.68,7.68,0,0,0-6.44.89C393.34,748,394.08,754.07,398.32,757Z"/><path class="cls-7" d="M417.53,729.84c.84,1.07,2.08,1.49,2.78.93s.58-1.88-.26-2.95-2.09-1.49-2.78-.93S416.69,728.77,417.53,729.84Z"/><path class="cls-7" d="M429.57,720.2c.84,1.07,2.09,1.49,2.79.93s.57-1.87-.27-3-2.08-1.49-2.78-.93S428.73,719.13,429.57,720.2Z"/><path class="cls-26" d="M426.16,723.8s7.15,4,12.11,4.71c-.54,3.16-4.39,4.91-4.39,4.91Z"/><path class="cls-7" d="M412.75,721.55a.82.82,0,0,0-.41.7,6.46,6.46,0,0,1-2.52,5.24.8.8,0,0,0-.24,1.11.79.79,0,0,0,1.1.24,8,8,0,0,0,3.25-6.58.78.78,0,0,0-.78-.81A.88.88,0,0,0,412.75,721.55Z"/><path class="cls-7" d="M431.54,711.49a.78.78,0,0,0,.28-.38.8.8,0,0,0-.48-1,7.88,7.88,0,0,0-7.23.82A.82.82,0,0,0,424,712a.8.8,0,0,0,1.12.15,6.16,6.16,0,0,1,5.73-.59A.78.78,0,0,0,431.54,711.49Z"/><path class="cls-7" d="M433.75,748.07a12.62,12.62,0,0,0,1.26-.57l1.09-8.77s-.53,0-1.34,0c-2.78.08-8.94.62-10.57,3.77a5.63,5.63,0,0,0-.42,1.14,6.2,6.2,0,0,0,.29,4.27C425.07,749.81,427.74,750.78,433.75,748.07Z"/><path class="cls-5" d="M423.77,743.66l10.7-3.88.29-1c-2.78.08-8.94.62-10.57,3.77A5.63,5.63,0,0,0,423.77,743.66Z"/><path class="cls-27" d="M433.75,748.07c-1.88-3.1-6.87-1.51-9.69-.14C425.07,749.81,427.74,750.78,433.75,748.07Z"/><path class="cls-7" d="M376.15,733.71c-3.29-2.53-8.11-9.38-1.65-16.49s14.1-10.63,10.49-15.8,2.78-9.57,7.27-6.19c0,0,10.58-17.31,18.1-4,0,0,7.38-5.07,11.89.38s5.47,11.28-.48,13.38-6.51,2.72-5.48,6.16-4.14,6.31-4.14,6.31,3.2-2.05,1.39-4.52c0,0-.43,4.39-6.2,6.21s-3.1,7.42-3.1,7.42-3.08,1.2-3.76-3.2c0,0-2.4,9.83-8.78,12.27S381.11,737.52,376.15,733.71Z"/><path class="cls-18" d="M460.31,808.3c-1.07,3.79-2.07,7.64-3,11.51a1.09,1.09,0,0,0,0,.25l-7.51.27-5.18.17c-4.12.11-8.29.23-12.51.29-.52,0-1,.05-1.54.05-1,0-1.92,0-2.87,0s-1.85,0-2.79,0A38.5,38.5,0,0,1,436,808a25,25,0,0,1,2.58-1.72,19.12,19.12,0,0,1,5.95-2.07C450.11,803.34,455.65,805.08,460.31,808.3Z"/><path class="cls-16" d="M475.24,800.94a12.38,12.38,0,0,1-2,6.12c-2.83,4.36-5.7,8.59-8.7,12.69l-7.3.31-7.51.27-5.18.17c-4.12.11-8.29.23-12.51.29.24-.26.44-.53.66-.8,4-5,8-10.37,11.85-15.74q1.64-2.24,3.2-4.52c1.54-2.13,3-4.27,4.48-6.39l.15-.22A12.54,12.54,0,0,1,467,788.47a12.11,12.11,0,0,1,2.83,1.47A12.52,12.52,0,0,1,475.24,800.94Z"/><path class="cls-12" d="M476.51,801c-.71,5.12-3,11.27-7.54,18.52l-4.41.23-7.3.31-7.51.27-5.18.17c-4.12.11-8.29.23-12.51.29-.52,0-1,.05-1.54.05-1,0-1.92,0-2.87,0,2.47-3.74,5.52-8.41,8.39-12.84,2-3.08,3.83-6,5.34-8.51.58-.93,1.12-1.82,1.58-2.6a28.41,28.41,0,0,1,10.33-10.35h0a29.9,29.9,0,0,1,16.18-3.88,15.27,15.27,0,0,1,4.67,4.81C476.18,790.74,477.31,795.21,476.51,801Z"/><path class="cls-17" d="M476.51,801c-.71,5.12-3,11.27-7.54,18.52l-4.41.23-7.3.31-7.51.27-5.18.17c-4.12.11-8.29.23-12.51.29-.52,0-1,.05-1.54.05-1,0-1.92,0-2.87,0,2.47-3.74,5.52-8.41,8.39-12.84,2-3.08,3.83-6,5.34-8.51.58-.93,1.12-1.82,1.58-2.6a28.41,28.41,0,0,1,10.33-10.35h0a29.9,29.9,0,0,1,16.18-3.88,15.27,15.27,0,0,1,4.67,4.81C476.18,790.74,477.31,795.21,476.51,801Z"/></g></g></svg>