<svg width="44" height="48" viewBox="0 0 44 48" fill="none" xmlns="http://www.w3.org/2000/svg">
<g clip-path="url(#clip0_2_968)">
<path d="M34.3842 0C33.4553 0 10.6679 0 9.62286 0C4.32515 0 0.00715684 4.21775 0.00715684 9.40828C0.00715684 40.8284 -0.0436431 38.6769 0.072471 39.1101C0.355499 44.0592 4.55738 48 9.68091 48C14.9786 48 19.2966 43.7822 19.2966 38.5917V34.5089H24.0863C32.4901 34.5089 36.3509 24.1278 29.8122 18.8663C31.2418 18.8663 34.5584 18.8947 34.9212 18.7953C39.9794 18.5254 44.0071 14.4142 44.0071 9.40118C43.9999 4.21775 39.6819 0 34.3842 0ZM31.0749 25.6828C31.0749 25.6899 31.0749 25.6899 31.0749 25.6899C31.0749 29.4675 27.9471 32.5278 24.0863 32.5278C19.6812 32.5278 11.1033 32.4781 9.45594 32.5278C2.53264 32.7195 2.03915 38.3645 2.03915 38.3645V13.0012C2.03915 13.0012 2.53264 18.6462 9.45594 18.8379C11.1614 18.8876 14.9278 18.8379 24.0863 18.8379C27.9471 18.845 31.0749 21.9053 31.0749 25.6828Z" fill="#5348C7"/>
</g>
<defs>
<clipPath id="clip0_2_968">
<rect width="44" height="48" fill="white"/>
</clipPath>
</defs>
</svg>
